<?xml version="1.0" standalone="no"?><!DOCTYPE svg PUBLIC "-//W3C//DTD SVG 1.1//EN" "http://www.w3.org/Graphics/SVG/1.1/DTD/svg11.dtd"><svg t="1523773244836" class="icon" style="" viewBox="0 0 1024 1024" version="1.1" xmlns="http://www.w3.org/2000/svg" p-id="608" xmlns:xlink="http://www.w3.org/1999/xlink" width="200" height="200"><defs><style type="text/css"></style></defs><path d="M931.437714 638.281143l-95.414857 18.870857 106.276572 61.147429c17.152 9.728 23.442286 32.585143 13.129142 49.700571s-32.585143 23.442286-49.700571 13.129143l-106.276571-60.562286 31.414857 91.428572c16.018286 45.714286-53.723429 69.156571-69.156572 23.990857l-58.294857-171.446857L548.571429 575.378286v178.870857l118.857142 136.009143c32 35.986286-23.442286 84.553143-54.857142 48.018285l-64-73.142857V987.428571c0 20.004571-16.566857 36.571429-36.571429 36.571429s-36.571429-16.566857-36.571429-36.571429v-122.294857l-64 73.142857c-31.414857 36.571429-86.857143-11.995429-54.857142-48.018285L475.428571 754.249143v-178.870857l-154.843428 89.161143-58.294857 171.446857c-15.433143 45.129143-85.138286 21.723429-69.156572-23.990857l31.414857-91.428572-106.276571 60.562286c-17.152 10.276571-39.424 3.986286-49.700571-13.129143s-3.986286-40.009143 13.129142-49.700571l106.276572-61.147429-95.414857-18.870857c-47.433143-9.728-33.133714-81.152 14.299428-72.009143l177.152 35.437714L438.857143 512l-154.843429-89.709714-177.152 35.437714c-2.304 0.585143-5.156571 0.585143-7.424 0.585143-43.446857 0-49.700571-64-6.838857-72.557714l95.414857-18.870858L81.737143 305.737143a36.315429 36.315429 0 0 1-13.129143-49.700572 35.949714 35.949714 0 0 1 49.700571-13.129142l106.276572 60.562285-31.414857-91.428571c-16.018286-45.714286 53.723429-69.156571 69.156571-23.990857L320.621714 359.497143l154.843429 89.161143V269.787429l-118.857143-136.009143c-32-35.986286 23.442286-84.553143 54.857143-48.018286l64 73.142857V36.608c0-20.004571 16.566857-36.571429 36.571428-36.571429s36.571429 16.566857 36.571429 36.571429v122.294857l64-73.142857c31.414857-36.571429 86.857143 11.995429 54.857143 48.018286l-118.857143 136.009143v178.870857l154.843429-89.161143 58.294857-171.446857c15.433143-45.129143 85.138286-21.723429 69.156571 23.990857l-31.414857 91.428571 106.276571-60.562285c17.152-10.276571 39.424-3.986286 49.700572 13.129142s3.986286 40.009143-13.129143 49.700572l-106.276571 61.147428 95.414857 18.870858c42.861714 8.557714 36.571429 72.557714-6.838857 72.557714-2.304 0-5.156571 0-7.424-0.585143l-177.152-35.437714L585.216 512l154.843429 89.709714 177.152-35.437714c47.433143-9.142857 61.696 62.281143 14.299428 72.009143z" fill="#1890ff" p-id="609"></path></svg>